<svg id="Layer_1" data-name="Layer 1" xmlns="http://www.w3.org/2000/svg" viewBox="0 0 112.42 102.62"><defs><style>.cls-1{fill:#ffc430;}</style></defs><title>Logo17_Yellow</title><path class="cls-1" d="M55.48,54.73a14.56,14.56,0,0,0-17-2.19l-17,9.33a14.56,14.56,0,0,0-6.12,6.47L7,85.84a14.56,14.56,0,0,0,3.12,16.87h0a14.56,14.56,0,0,0,17,2.19l17-9.33a14.56,14.56,0,0,0,6.12-6.47L58.6,71.59a14.56,14.56,0,0,0-3.12-16.87Z" transform="translate(-5.53 -4.07)"/><path class="cls-1" d="M69.06,43.69l6.11-11.85a10,10,0,0,0,1-6L74.24,12.62A10,10,0,0,0,55.45,9.48L49.34,21.33a10,10,0,0,0-1,6l1.93,13.19a10,10,0,0,0,18.79,3.13Z" transform="translate(-5.53 -4.07)"/><path class="cls-1" d="M111.43,58.06,97.18,50.71a12,12,0,0,0-7.26-1.21L74.05,51.83a12,12,0,0,0-3.77,22.6l14.25,7.35A12,12,0,0,0,91.79,83l15.86-2.33a12,12,0,0,0,3.77-22.6Z" transform="translate(-5.53 -4.07)"/></svg>