<svg id="Layer_1" data-name="Layer 1" xmlns="http://www.w3.org/2000/svg" xmlns:xlink="http://www.w3.org/1999/xlink" viewBox="0 0 112.42 102.62"><defs><style>.cls-1{fill:url(#linear-gradient);}.cls-2{fill:url(#linear-gradient-2);}.cls-3{fill:url(#linear-gradient-3);}</style><linearGradient id="linear-gradient" x1="5.53" y1="80.57" x2="60.03" y2="80.57" gradientUnits="userSpaceOnUse"><stop offset="0" stop-color="#f06eaa"/><stop offset="1" stop-color="#92278f"/></linearGradient><linearGradient id="linear-gradient-2" x1="48.23" y1="28.45" x2="76.28" y2="28.45" xlink:href="#linear-gradient"/><linearGradient id="linear-gradient-3" x1="63.76" y1="68.1" x2="117.94" y2="68.1" xlink:href="#linear-gradient"/></defs><title>Logo17_Purple</title><path class="cls-1" d="M38.47,54.4l-17,9.33a14.56,14.56,0,0,0-6.12,6.47L7,87.7a14.56,14.56,0,0,0,3.12,16.87h0a14.56,14.56,0,0,0,17,2.19l17-9.33a14.56,14.56,0,0,0,6.12-6.47L58.6,73.45A14.56,14.56,0,0,0,38.47,54.4Z" transform="translate(-5.53 -5.92)"/><path class="cls-2" d="M69.06,45.55,75.17,33.7a10,10,0,0,0,1-6L74.24,14.48a10,10,0,0,0-18.79-3.13L49.34,23.19a10,10,0,0,0-1,6l1.93,13.19a10,10,0,0,0,18.79,3.13Z" transform="translate(-5.53 -5.92)"/><path class="cls-3" d="M111.43,59.92,97.18,52.57a12,12,0,0,0-7.26-1.21L74.05,53.69a12,12,0,0,0-3.77,22.6l14.25,7.35a12,12,0,0,0,7.26,1.21l15.86-2.33a12,12,0,0,0,3.77-22.6Z" transform="translate(-5.53 -5.92)"/></svg>