<svg id="Layer_1" data-name="Layer 1" xmlns="http://www.w3.org/2000/svg" viewBox="0 0 112.08 112.08"><defs><style>.cls-1{fill:#ed1c24;}</style></defs><title>Logo7_Red</title><path class="cls-1" d="M68.25,36a10,10,0,0,0-14.07,0L36.26,53.93a10,10,0,0,0,0,14.07L54.18,85.92a10,10,0,0,0,14.07,0L86.18,68a10,10,0,0,0,0-14.07Z" transform="translate(-5.18 -4.92)"/><path class="cls-1" d="M107.9,38.28l-24-24a32.18,32.18,0,0,0-45.37,0l-24,24a32.18,32.18,0,0,0,0,45.37l24,24a32.18,32.18,0,0,0,45.37,0l24-24A32.18,32.18,0,0,0,107.9,38.28ZM92.26,74.08,74.33,92A18.57,18.57,0,0,1,48.1,92L30.17,74.08a18.57,18.57,0,0,1,0-26.24L48.1,29.92a18.57,18.57,0,0,1,26.24,0L92.26,47.84A18.57,18.57,0,0,1,92.26,74.08Z" transform="translate(-5.18 -4.92)"/></svg>