<svg id="Layer_1" data-name="Layer 1" xmlns="http://www.w3.org/2000/svg" viewBox="0 0 112.08 112.08"><defs><style>.cls-1{fill:#e6e7e8;}</style></defs><title>Logo7_White</title><path class="cls-1" d="M67.57,36A10,10,0,0,0,53.5,36L35.58,53.93a10,10,0,0,0,0,14.07L53.5,85.92a10,10,0,0,0,14.07,0L85.5,68a10,10,0,0,0,0-14.07Z" transform="translate(-4.5 -4.92)"/><path class="cls-1" d="M107.22,38.28l-24-24a32.18,32.18,0,0,0-45.37,0l-24,24a32.18,32.18,0,0,0,0,45.37l24,24a32.18,32.18,0,0,0,45.37,0l24-24A32.18,32.18,0,0,0,107.22,38.28ZM91.58,74.08,73.65,92a18.57,18.57,0,0,1-26.24,0L29.49,74.08a18.57,18.57,0,0,1,0-26.24L47.42,29.92a18.57,18.57,0,0,1,26.24,0L91.58,47.84A18.57,18.57,0,0,1,91.58,74.08Z" transform="translate(-4.5 -4.92)"/></svg>