<svg id="Layer_1" data-name="Layer 1" xmlns="http://www.w3.org/2000/svg" viewBox="0 0 112.08 112.08"><defs><style>.cls-1{fill:#231f20;}</style></defs><title>Logo7_Black</title><path class="cls-1" d="M67.5,36a10,10,0,0,0-14.07,0L35.5,53.93A10,10,0,0,0,35.5,68L53.43,85.92a10,10,0,0,0,14.07,0L85.42,68a10,10,0,0,0,0-14.07Z" transform="translate(-4.42 -4.92)"/><path class="cls-1" d="M107.14,38.28l-24-24a32.18,32.18,0,0,0-45.37,0l-24,24a32.18,32.18,0,0,0,0,45.37l24,24a32.18,32.18,0,0,0,45.37,0l24-24A32.18,32.18,0,0,0,107.14,38.28ZM91.51,74.08,73.58,92a18.57,18.57,0,0,1-26.24,0L29.42,74.08a18.57,18.57,0,0,1,0-26.24L47.34,29.92a18.57,18.57,0,0,1,26.24,0L91.51,47.84A18.57,18.57,0,0,1,91.51,74.08Z" transform="translate(-4.42 -4.92)"/></svg>