<svg id="Layer_1" data-name="Layer 1" xmlns="http://www.w3.org/2000/svg" viewBox="0 0 119.38 34.93"><defs><style>.cls-1{fill:#231f20;}</style></defs><title>Logo10_Black</title><path class="cls-1" d="M15.66,24.29h0Z" transform="translate(-1 -1.4)"/><path class="cls-1" d="M86,21.91l-.35,0h-.41l.13.07c.57.3,1.11.58,1.81.12h0a1.54,1.54,0,0,0,.27-.17,5.34,5.34,0,0,0-.75,0Z" transform="translate(-1 -1.4)"/><path class="cls-1" d="M120.31,9.69c-.11-2.18.46-6-2-7.11a10.91,10.91,0,0,0-4.72-.47c-2.17.08-4.34.35-6.52.36-4.46,0-8.86-1.06-13.32-1.06-4.1,0-8,1.58-12,2.49A81,81,0,0,1,69.08,6.2c-4.2.28-8.41,0-12.61-.09a15.35,15.35,0,0,0-5.11.53,17.23,17.23,0,0,0-4,2.07c-1.64,1.07-3.27,2.12-5,3.05s-3.78,1.94-5.67,2.93c-3.5,1.83-6.78,4.07-10.59,5.25a21.52,21.52,0,0,1-8.84.73c-3.25-1-2.13-5.49-2.37-8A6.82,6.82,0,0,0,9.16,6.21a27.53,27.53,0,0,0,1.61,2.25,5.92,5.92,0,0,1,.86,3.06A20.72,20.72,0,0,1,11,16.93c-.28,1.36-.66,3.19.46,4.3a6.89,6.89,0,0,0-2.76,3.59,33.43,33.43,0,0,0-.81,3.92,7.73,7.73,0,0,1-1.69,3.7A10.7,10.7,0,0,1,1,35.26c4.28,2.7,10.63,0,11.71-5,.34-1.58.4-3.24.87-4.79.34-1.11,1.16-1.27,2.08-1.22l-.74-.08.75.08c.43,0,.88.1,1.31.14l-1.25-.14c1.81.21,3.6.52,5.4.85a31.14,31.14,0,0,1,6,1.44c1.86.74,3.63,1.7,5.41,2.6a42.08,42.08,0,0,0,11.77,3.72c8.56,1.52,17.15,1,25.77.52,4.56-.25,9.11-.51,13.68-.58,4.37-.07,8.73.15,13.1.06,3.44-.08,6.88-.32,10.31-.57,3-.22,6.46-.53,9-2.4-4-.32-7.87.4-11.85.44a59.15,59.15,0,0,1-13.1-1c6.61-2.75,13.8-3,20.85-2.94,3.24,0,5.47-2.16,6.73-5C120.39,17.73,120.5,13.66,120.31,9.69Zm-102,11.1.42,0Zm1,.11h0Zm57.67.51A36.28,36.28,0,0,0,68,26.06a8.29,8.29,0,0,1-5.1,2.22l-.47,0a3,3,0,0,1-2.19-1.69.82.82,0,0,1-.14-.63c.08-.33.4-.53.71-.71l0,0c2.35-1.44,3.52-4,4.43-6.2a.46.46,0,0,1,.38-.23.48.48,0,0,1,.43.11.23.23,0,0,1,0,.23,14.26,14.26,0,0,1-3,5.1l-.1.1a8.1,8.1,0,0,1-1.09,1l-.26.15a2.8,2.8,0,0,0-.69.47c-.05.3.3.8.68,1.17a2.12,2.12,0,0,0,1.89.59,8.61,8.61,0,0,0,4.12-2.15A16.62,16.62,0,0,1,69.88,24a68.54,68.54,0,0,1,6.61-3h0c.08,0,.53-.1.63.14C77.15,21.12,77.19,21.3,76.92,21.41Zm11,.55-.18.13a2.34,2.34,0,0,1-1.29.58l-.19,0a2.76,2.76,0,0,1-1-.28L85,22.21a2,2,0,0,0-.66-.32l-.33,0a.14.14,0,0,1-.13-.05.1.1,0,0,1,0-.07.13.13,0,0,1,0-.08.18.18,0,0,1,.16-.07,1.52,1.52,0,0,1,.33,0c.41,0,.82,0,1.22,0a11,11,0,0,1,2.24.11.13.13,0,0,1,.11.1A.13.13,0,0,1,87.9,22Z" transform="translate(-1 -1.4)"/></svg>