<svg id="Layer_1" data-name="Layer 1" xmlns="http://www.w3.org/2000/svg" viewBox="0 0 114.17 33.4"><defs><style>.cls-1{fill:#e6e7e8;}</style></defs><title>Logo10_White</title><path class="cls-1" d="M17.7,26.56h0Z" transform="translate(-3.68 -4.68)"/><path class="cls-1" d="M85,24.29l-.34,0h-.39l.12.06c.55.29,1.07.56,1.73.11h0a1.47,1.47,0,0,0,.26-.16,5.11,5.11,0,0,0-.72,0Z" transform="translate(-3.68 -4.68)"/><path class="cls-1" d="M117.78,12.6c-.1-2.09.44-5.74-2-6.8a10.44,10.44,0,0,0-4.51-.45c-2.08.08-4.15.33-6.23.34-4.27,0-8.48-1-12.73-1-3.92,0-7.67,1.51-11.44,2.38A77.49,77.49,0,0,1,68.78,9.26c-4,.27-8,0-12.06-.08a14.68,14.68,0,0,0-4.89.51,16.48,16.48,0,0,0-3.82,2c-1.57,1-3.13,2-4.78,2.92s-3.62,1.86-5.42,2.8c-3.34,1.75-6.49,3.89-10.12,5a20.58,20.58,0,0,1-8.45.7c-3.11-1-2-5.25-2.26-7.68a6.52,6.52,0,0,0-5.49-6.16A26.33,26.33,0,0,0,13,11.42a5.66,5.66,0,0,1,.82,2.92,19.81,19.81,0,0,1-.56,5.18c-.27,1.3-.63,3.05.44,4.11a6.59,6.59,0,0,0-2.64,3.43,32,32,0,0,0-.78,3.75,7.39,7.39,0,0,1-1.61,3.54,10.23,10.23,0,0,1-5,2.71c4.09,2.58,10.17,0,11.2-4.75.33-1.51.38-3.1.83-4.58.32-1.06,1.11-1.21,2-1.16L17,26.49l.71.07c.41,0,.84.09,1.25.14l-1.19-.13c1.73.2,3.44.5,5.16.81a29.78,29.78,0,0,1,5.72,1.37c1.78.7,3.47,1.63,5.18,2.49A40.24,40.24,0,0,0,45.08,34.8c8.19,1.45,16.4,1,24.64.49,4.36-.24,8.71-.49,13.08-.56,4.18-.07,8.35.15,12.53.06,3.29-.07,6.58-.31,9.86-.54,2.88-.21,6.17-.5,8.57-2.29-3.81-.3-7.53.38-11.33.42a56.56,56.56,0,0,1-12.53-1c6.32-2.63,13.19-2.91,19.94-2.81,3.1,0,5.23-2.06,6.43-4.77C117.86,20.29,118,16.4,117.78,12.6ZM20.19,23.21l.4,0Zm.94.1h0Zm55.15.49a34.69,34.69,0,0,0-8.54,4.45,7.93,7.93,0,0,1-4.87,2.12l-.45,0a2.89,2.89,0,0,1-2.1-1.62.78.78,0,0,1-.14-.61c.08-.32.38-.5.68-.68l0,0c2.25-1.38,3.36-3.78,4.23-5.93a.44.44,0,0,1,.37-.22.46.46,0,0,1,.41.1.22.22,0,0,1,0,.22,13.64,13.64,0,0,1-2.86,4.87l-.1.09a7.75,7.75,0,0,1-1,.92l-.25.15a2.68,2.68,0,0,0-.66.45c-.05.28.29.77.65,1.12a2,2,0,0,0,1.81.57,8.23,8.23,0,0,0,3.94-2.06,15.89,15.89,0,0,1,2.14-1.47,65.54,65.54,0,0,1,6.32-2.9h0c.08,0,.51-.1.6.13C76.5,23.53,76.54,23.7,76.28,23.81Zm10.5.52-.18.12a2.24,2.24,0,0,1-1.24.55h-.18a2.64,2.64,0,0,1-.93-.27L84,24.58a1.9,1.9,0,0,0-.63-.31l-.32,0A.14.14,0,0,1,83,24.2a.1.1,0,0,1,0-.06.12.12,0,0,1,0-.08.17.17,0,0,1,.15-.07,1.45,1.45,0,0,1,.31,0c.39,0,.78,0,1.17,0a10.49,10.49,0,0,1,2.14.1.12.12,0,0,1,.1.09A.13.13,0,0,1,86.78,24.33Z" transform="translate(-3.68 -4.68)"/></svg>