<svg id="Layer_1" data-name="Layer 1" xmlns="http://www.w3.org/2000/svg" viewBox="0 0 79.89 114.46"><defs><style>.cls-1{fill:#e6e7e8;}</style></defs><title>Logo20_White</title><path class="cls-1" d="M32.27,63.14a29.25,29.25,0,0,1,29.07-3.37A29.27,29.27,0,1,0,20.65,90,29.25,29.25,0,0,1,32.27,63.14Z" transform="translate(-3 -3.73)"/><path class="cls-1" d="M51.41,33A29.25,29.25,0,0,1,64.94,59,29.27,29.27,0,1,0,22.17,31.75,29.25,29.25,0,0,1,51.41,33Z" transform="translate(-3 -3.73)"/><path class="cls-1" d="M69.62,67.57A29.27,29.27,0,0,0,24.4,90.49a29.26,29.26,0,0,1,42.45,27.71,29.27,29.27,0,0,0,2.77-50.62Z" transform="translate(-3 -3.73)"/></svg>