<svg id="Layer_1" data-name="Layer 1" xmlns="http://www.w3.org/2000/svg" viewBox="0 0 79.89 114.46"><defs><style>.cls-1{fill:#a44298;}.cls-2{fill:#551a57;}.cls-3{fill:#efa0c6;}</style></defs><title>Logo20_Purple</title><path class="cls-1" d="M33.19,63.14a29.25,29.25,0,0,1,29.07-3.37A29.27,29.27,0,1,0,21.57,90,29.25,29.25,0,0,1,33.19,63.14Z" transform="translate(-3.91 -3.73)"/><path class="cls-2" d="M52.32,33A29.25,29.25,0,0,1,65.86,59,29.27,29.27,0,1,0,23.08,31.75,29.25,29.25,0,0,1,52.32,33Z" transform="translate(-3.91 -3.73)"/><path class="cls-3" d="M70.53,67.57A29.27,29.27,0,0,0,25.31,90.49a29.26,29.26,0,0,1,42.45,27.71,29.27,29.27,0,0,0,2.77-50.62Z" transform="translate(-3.91 -3.73)"/></svg>