<svg id="Layer_1" data-name="Layer 1" xmlns="http://www.w3.org/2000/svg" xmlns:xlink="http://www.w3.org/1999/xlink" viewBox="0 0 79.89 114.46"><defs><style>.cls-1{fill:url(#linear-gradient);}.cls-2{fill:url(#linear-gradient-2);}.cls-3{fill:url(#linear-gradient-3);}</style><linearGradient id="linear-gradient" x1="35.9" y1="88.66" x2="26.16" y2="16.6" gradientUnits="userSpaceOnUse"><stop offset="0" stop-color="#00aeef"/><stop offset="1" stop-color="#262262"/></linearGradient><linearGradient id="linear-gradient-2" x1="58.93" y1="85.55" x2="49.19" y2="13.48" xlink:href="#linear-gradient"/><linearGradient id="linear-gradient-3" x1="53.29" y1="86.31" x2="43.55" y2="14.25" xlink:href="#linear-gradient"/></defs><title>Logo20_Blue</title><path class="cls-1" d="M32.46,63.14a29.25,29.25,0,0,1,29.07-3.37A29.27,29.27,0,1,0,20.84,90,29.25,29.25,0,0,1,32.46,63.14Z" transform="translate(-3.18 -3.73)"/><path class="cls-2" d="M51.6,33A29.25,29.25,0,0,1,65.13,59,29.27,29.27,0,1,0,22.35,31.75,29.25,29.25,0,0,1,51.6,33Z" transform="translate(-3.18 -3.73)"/><path class="cls-3" d="M69.8,67.57A29.27,29.27,0,0,0,24.58,90.49,29.26,29.26,0,0,1,67,118.19,29.27,29.27,0,0,0,69.8,67.57Z" transform="translate(-3.18 -3.73)"/></svg>