<svg id="Layer_1" data-name="Layer 1" xmlns="http://www.w3.org/2000/svg" viewBox="0 0 34.49 115.27"><defs><style>.cls-1{fill:#92278f;}</style></defs><title>Logo25_Purple</title><path class="cls-1" d="M38.69,67.15v-.66h0V28.79L5.15,3.61V41.32l8.31,6.24-9.26,7,.07,12V93.7L37.8,118.88V81.17l-8.86-6.65ZM6.91,40.44V7.14l30,22.53v.17l-22,16.61Zm30,22.51L16.39,47.55,36.73,32.19Zm-22-14.29,22,16.51v1.11l-9.45,7.13L6,57.28V55.42ZM26,74.52l-19.85,15L6,66.59V59.52ZM36,82v33.3L6,92.82v-1L27.47,75.62Z" transform="translate(-4.2 -3.61)"/></svg>