<svg id="Layer_1" data-name="Layer 1" xmlns="http://www.w3.org/2000/svg" viewBox="0 0 34.49 115.27"><defs><style>.cls-1{fill:#e6e7e8;}</style></defs><title>Logo25_White</title><path class="cls-1" d="M38.17,67.15v-.66h0V28.79L4.63,3.61V41.32l8.31,6.24-9.26,7,.07,12V93.7l33.54,25.18V81.17l-8.86-6.65ZM6.39,40.44V7.14l30,22.53v.17l-22,16.61Zm30,22.51L15.87,47.55,36.22,32.19Zm-22-14.29,22,16.51v1.11L27,73.41,5.46,57.28V55.42ZM25.49,74.52l-19.85,15L5.51,66.59V59.52Zm10,7.53v33.3l-30-22.53v-1L27,75.62Z" transform="translate(-3.68 -3.61)"/></svg>