<svg id="Layer_1" data-name="Layer 1" xmlns="http://www.w3.org/2000/svg" viewBox="0 0 113.61 98.55"><defs><style>.cls-1{fill:#231f20;}</style></defs><title>Logo19_Black</title><path class="cls-1" d="M63.82,6.57l0-.05L24,6.68,4.31,41.19l20,34.34h.06L41.55,105l39.75-.17L98.18,75.27l2.84-5,16.89-29.53-20-34.34ZM86.68,65.4l-16.95.07,8.41-14.71ZM69.47,45.93l-8.29,14.5L52.76,46ZM52.63,65.49l-16.77.07L44.19,51Zm.09-29.41L61,21.52,69.49,36Zm-37,5.06,14-24.56,22.68-.09L41.26,36.12l-2.84,5L27.19,60.73ZM75.52,94.9,47.24,95,35.84,75.48l22.56-.09,0,.05,28.29-.12Zm30.93-54.09L95.25,60.4,81,36h-.06L69.59,16.47l22.62-.09Z" transform="translate(-4.31 -6.43)"/></svg>