<svg id="Layer_1" data-name="Layer 1" xmlns="http://www.w3.org/2000/svg" viewBox="0 0 118.63 118.63"><defs><style>.cls-1{fill:#e6e7e8;}</style></defs><title>Logo2_Grey</title><polygon class="cls-1" points="118.63 40.69 100.01 22.07 77.94 44.15 93.1 59.31 77.94 74.48 100.01 96.56 118.63 77.94 109.78 59.31 118.63 40.69"/><polygon class="cls-1" points="40.69 44.15 18.62 22.07 0 40.69 8.85 59.31 0 77.94 18.62 96.56 40.69 74.48 25.53 59.31 40.69 44.15"/><polygon class="cls-1" points="74.48 40.69 96.56 18.62 77.94 0 59.31 8.85 40.69 0 22.07 18.62 44.15 40.69 59.31 25.53 74.48 40.69"/><polygon class="cls-1" points="44.15 77.94 22.07 100.01 40.69 118.63 59.31 109.78 77.94 118.63 96.56 100.01 74.48 77.94 59.31 93.1 44.15 77.94"/></svg>