<svg id="Layer_1" data-name="Layer 1" xmlns="http://www.w3.org/2000/svg" viewBox="0 0 115.1 95.56"><defs><style>.cls-1{fill:#661f5f;}.cls-2{fill:#b556a1;}</style></defs><title>Logo13_Purple</title><path class="cls-1" d="M74.88,3.49A44.27,44.27,0,0,0,50.45,9.91,58.31,58.31,0,0,1,80.55,62.79a58,58,0,0,1-9.16,29.6l.7,0A44.49,44.49,0,1,0,74.88,3.49Z" transform="translate(-2.88 -3.47)"/><path class="cls-2" d="M46,99a44.27,44.27,0,0,0,24.43-6.42A58.32,58.32,0,0,1,49.47,10.11l-.7,0A44.49,44.49,0,1,0,46,99Z" transform="translate(-2.88 -3.47)"/></svg>