<svg id="Layer_1" data-name="Layer 1" xmlns="http://www.w3.org/2000/svg" viewBox="0 0 115.1 95.56"><defs><style>.cls-1{fill:#231f20;}</style></defs><title>Logo13_Black</title><path class="cls-1" d="M74.78,4.53a44.27,44.27,0,0,0-24.43,6.42A58.31,58.31,0,0,1,80.45,63.83a58,58,0,0,1-9.16,29.6l.7,0A44.49,44.49,0,1,0,74.78,4.53Z" transform="translate(-2.78 -4.51)"/><path class="cls-1" d="M45.88,100a44.27,44.27,0,0,0,24.43-6.42A58.32,58.32,0,0,1,49.36,11.15l-.7,0A44.49,44.49,0,1,0,45.88,100Z" transform="translate(-2.78 -4.51)"/></svg>