<svg id="Layer_1" data-name="Layer 1" xmlns="http://www.w3.org/2000/svg" viewBox="0 0 115.1 95.56"><defs><style>.cls-1{fill:#e6e7e8;}</style></defs><title>Logo13_White</title><path class="cls-1" d="M75.83,3.49A44.27,44.27,0,0,0,51.4,9.91,58.31,58.31,0,0,1,81.5,62.79a58,58,0,0,1-9.16,29.6l.7,0A44.49,44.49,0,1,0,75.83,3.49Z" transform="translate(-3.83 -3.47)"/><path class="cls-1" d="M46.93,99a44.27,44.27,0,0,0,24.43-6.42A58.32,58.32,0,0,1,50.41,10.11l-.7,0A44.49,44.49,0,1,0,46.93,99Z" transform="translate(-3.83 -3.47)"/></svg>