<svg id="Layer_1" data-name="Layer 1" xmlns="http://www.w3.org/2000/svg" viewBox="0 0 107 107"><defs><style>.cls-1{fill:#231f20;}</style></defs><title>Logo9_Black</title><path class="cls-1" d="M79.92,80.46a5.1,5.1,0,0,1-7.21-7.21l34.87-34.87a53.56,53.56,0,0,0-6.36-9.75,5.1,5.1,0,0,1-.62.76L44.82,85.18A5.1,5.1,0,0,1,37.61,78L93.4,22.18a5.11,5.11,0,0,1,.79-.64,53.53,53.53,0,0,0-11.63-7.41L48.07,48.61a5.1,5.1,0,0,1-7.21-7.21l31-31a53.47,53.47,0,1,0,39.75,38.35Z" transform="translate(-6.39 -9.09)"/></svg>