<svg id="Layer_1" data-name="Layer 1" xmlns="http://www.w3.org/2000/svg" viewBox="0 0 107 107"><defs><style>.cls-1{fill:#e6e7e8;}</style></defs><title>Logo9_White</title><path class="cls-1" d="M82.42,80.46a5.1,5.1,0,0,1-7.21-7.21l34.87-34.87a53.56,53.56,0,0,0-6.36-9.75,5.1,5.1,0,0,1-.62.76L47.32,85.18A5.1,5.1,0,0,1,40.12,78L95.91,22.18a5.11,5.11,0,0,1,.79-.64,53.53,53.53,0,0,0-11.63-7.41L50.58,48.61a5.1,5.1,0,0,1-7.21-7.21l31-31a53.47,53.47,0,1,0,39.75,38.35Z" transform="translate(-8.89 -9.09)"/></svg>