<svg id="Layer_1" data-name="Layer 1" xmlns="http://www.w3.org/2000/svg" xmlns:xlink="http://www.w3.org/1999/xlink" viewBox="0 0 107 107"><defs><style>.cls-1{fill:url(#linear-gradient);}</style><linearGradient id="linear-gradient" x1="8.15" y1="61.59" x2="115.15" y2="61.59" gradientUnits="userSpaceOnUse"><stop offset="0" stop-color="#ed1c24"/><stop offset="1" stop-color="#f26522"/></linearGradient></defs><title>Logo9_Orange</title><path class="cls-1" d="M81.69,79.46a5.1,5.1,0,0,1-7.21-7.21l34.87-34.87A53.56,53.56,0,0,0,103,27.63a5.1,5.1,0,0,1-.62.76L46.59,84.18A5.1,5.1,0,1,1,39.38,77L95.17,21.18a5.11,5.11,0,0,1,.79-.64,53.53,53.53,0,0,0-11.63-7.41L49.84,47.61a5.1,5.1,0,1,1-7.21-7.21l31-31a53.47,53.47,0,1,0,39.75,38.35Z" transform="translate(-8.15 -8.09)"/></svg>