<svg id="Layer_1" data-name="Layer 1" xmlns="http://www.w3.org/2000/svg" viewBox="0 0 117.1 109.99"><defs><style>.cls-1{fill:#231f20;}</style></defs><title>Logo16_Black</title><path class="cls-1" d="M51.31,50.15a13.12,13.12,0,0,1,18.55-.47l7.3,6.94,10.5-11A13.12,13.12,0,0,0,87.19,27L68.84,9.58a13.12,13.12,0,0,0-18.55.47L32.85,28.4A13.12,13.12,0,0,0,33.32,47l11,10.5Z" transform="translate(-2.19 -5.97)"/><path class="cls-1" d="M74.33,88.42a13.12,13.12,0,0,0,8-16.76l-3.37-9.49,14.36-5.1a13.12,13.12,0,0,1,16.76,8l8.47,23.86a13.12,13.12,0,0,1-8,16.76l-23.86,8.47a13.12,13.12,0,0,1-16.76-8l-5.1-14.36Z" transform="translate(-2.19 -5.97)"/><path class="cls-1" d="M46.84,89.09A13.12,13.12,0,0,1,38,72.77l2.87-9.66L26.26,58.77A13.12,13.12,0,0,0,9.94,67.62L2.73,91.89a13.12,13.12,0,0,0,8.84,16.32l24.27,7.21a13.12,13.12,0,0,0,16.32-8.84L56.5,92Z" transform="translate(-2.19 -5.97)"/></svg>