<svg id="Layer_1" data-name="Layer 1" xmlns="http://www.w3.org/2000/svg" viewBox="0 0 117.1 109.99"><defs><style>.cls-1{fill:#352f90;}</style></defs><title>Logo16_Purple</title><path class="cls-1" d="M52.35,50.15a13.12,13.12,0,0,1,18.55-.47l7.3,6.94,10.5-11A13.12,13.12,0,0,0,88.24,27L69.89,9.58a13.12,13.12,0,0,0-18.55.47L33.89,28.4A13.12,13.12,0,0,0,34.36,47l11,10.5Z" transform="translate(-3.23 -5.97)"/><path class="cls-1" d="M75.38,88.42a13.12,13.12,0,0,0,8-16.76L80,62.17l14.36-5.1a13.12,13.12,0,0,1,16.76,8l8.47,23.86a13.12,13.12,0,0,1-8,16.76l-23.86,8.47a13.12,13.12,0,0,1-16.76-8l-5.1-14.36Z" transform="translate(-3.23 -5.97)"/><path class="cls-1" d="M47.89,89.09A13.12,13.12,0,0,1,39,72.77l2.87-9.66L27.3,58.77A13.12,13.12,0,0,0,11,67.62L3.78,91.89a13.12,13.12,0,0,0,8.84,16.32l24.27,7.21a13.12,13.12,0,0,0,16.32-8.84L57.55,92Z" transform="translate(-3.23 -5.97)"/></svg>